<svg xmlns="http://www.w3.org/2000/svg" width="375" viewBox="0 0 375 375" height="375" version="1.0"><defs><clipPath id="a"><path d="M 3.78125 3.78125 L 371.28125 3.78125 L 371.28125 371.28125 L 3.78125 371.28125 Z M 3.78125 3.78125"/></clipPath></defs><g clip-path="url(#a)"><path fill="#010101" d="M 187.449219 36.914062 C 236.488281 36.914062 242.285156 37.074219 261.691406 37.960938 C 279.566406 38.765625 289.308594 41.746094 295.832031 44.320312 C 304.367188 47.625 310.484375 51.648438 316.925781 58.089844 C 323.371094 64.53125 327.316406 70.652344 330.695312 79.1875 C 333.191406 85.628906 336.171875 95.371094 337.058594 113.328125 C 337.945312 132.734375 338.105469 138.53125 338.105469 187.570312 C 338.105469 236.605469 337.945312 242.40625 337.058594 261.808594 C 336.253906 279.6875 333.273438 289.429688 330.695312 295.953125 C 327.394531 304.488281 323.371094 310.605469 316.925781 317.046875 C 310.484375 323.488281 304.367188 327.433594 295.832031 330.816406 C 289.390625 333.3125 279.644531 336.292969 261.691406 337.179688 C 242.285156 338.0625 236.488281 338.226562 187.449219 338.226562 C 138.410156 338.226562 132.613281 338.0625 113.207031 337.179688 C 95.332031 336.375 85.589844 333.394531 79.066406 330.816406 C 70.53125 327.515625 64.410156 323.488281 57.96875 317.046875 C 51.527344 310.605469 47.582031 304.488281 44.203125 295.953125 C 41.703125 289.511719 38.726562 279.765625 37.839844 261.808594 C 36.953125 242.40625 36.792969 236.605469 36.792969 187.570312 C 36.792969 138.53125 36.953125 132.734375 37.839844 113.328125 C 38.644531 95.453125 41.625 85.710938 44.203125 79.1875 C 47.503906 70.652344 51.527344 64.53125 57.96875 58.089844 C 64.410156 51.648438 70.53125 47.703125 79.066406 44.320312 C 85.507812 41.824219 95.25 38.847656 113.207031 37.960938 C 132.613281 37.074219 138.410156 36.914062 187.449219 36.914062 M 187.449219 3.820312 C 137.527344 3.820312 131.324219 4.0625 111.679688 4.945312 C 92.113281 5.832031 78.746094 8.972656 67.070312 13.480469 C 54.992188 18.152344 44.765625 24.433594 34.539062 34.660156 C 24.394531 44.886719 18.113281 55.113281 13.441406 67.191406 C 8.933594 78.867188 5.792969 92.230469 4.90625 111.800781 C 4.019531 131.367188 3.78125 137.644531 3.78125 187.488281 C 3.78125 237.414062 4.019531 243.613281 4.90625 263.261719 C 5.792969 282.828125 8.933594 296.191406 13.441406 307.867188 C 18.113281 319.945312 24.394531 330.171875 34.617188 340.398438 C 44.84375 350.625 55.070312 356.90625 67.148438 361.578125 C 78.824219 366.085938 92.191406 369.226562 111.757812 370.113281 C 131.324219 370.996094 137.605469 371.238281 187.53125 371.238281 C 237.453125 371.238281 243.652344 370.996094 263.300781 370.113281 C 282.867188 369.226562 296.234375 366.085938 307.910156 361.578125 C 319.988281 356.90625 330.214844 350.625 340.441406 340.398438 C 350.664062 330.171875 356.945312 319.945312 361.617188 307.867188 C 366.125 296.191406 369.265625 282.828125 370.152344 263.261719 C 371.039062 243.691406 371.28125 237.414062 371.28125 187.488281 C 371.28125 137.566406 371.039062 131.367188 370.152344 111.71875 C 369.265625 92.152344 366.125 78.785156 361.617188 67.109375 C 356.945312 55.03125 350.664062 44.804688 340.441406 34.578125 C 330.214844 24.351562 319.988281 18.070312 307.910156 13.402344 C 296.234375 8.890625 282.867188 5.753906 263.300781 4.867188 C 243.652344 4.0625 237.371094 3.820312 187.449219 3.820312"/></g><path fill="#010101" d="M 187.449219 93.199219 C 135.351562 93.199219 93.160156 135.390625 93.160156 187.488281 C 93.160156 239.585938 135.433594 281.859375 187.53125 281.859375 C 239.625 281.859375 281.902344 239.667969 281.902344 187.488281 C 281.820312 135.390625 239.546875 93.199219 187.449219 93.199219 M 187.449219 248.765625 C 153.628906 248.765625 126.253906 221.390625 126.253906 187.570312 C 126.253906 153.75 153.628906 126.375 187.449219 126.375 C 221.269531 126.375 248.644531 153.75 248.644531 187.570312 C 248.726562 221.308594 221.269531 248.765625 187.449219 248.765625"/><path fill="#010101" d="M 307.585938 89.496094 C 307.585938 101.652344 297.683594 111.558594 285.523438 111.558594 C 273.367188 111.558594 263.460938 101.652344 263.460938 89.496094 C 263.460938 77.335938 273.367188 67.429688 285.523438 67.429688 C 297.683594 67.429688 307.585938 77.253906 307.585938 89.496094"/></svg>