<svg xmlns="http://www.w3.org/2000/svg" width="375" viewBox="0 0 375 375" height="375" version="1.0"><defs><clipPath id="a"><path d="M 5.582031 0 L 375 0 L 375 375 L 5.582031 375 Z M 5.582031 0"/></clipPath></defs><g clip-path="url(#a)"><path d="M 286.3125 0.148438 L 99.554688 0.148438 C 47.8125 0.148438 5.582031 42.378906 5.582031 94.121094 L 5.582031 281.175781 C 5.582031 332.621094 47.8125 374.851562 99.554688 374.851562 L 286.609375 374.851562 C 338.355469 374.851562 380.582031 332.621094 380.582031 280.878906 L 380.582031 94.121094 C 380.285156 42.378906 338.058594 0.148438 286.3125 0.148438 Z M 130.484375 303.480469 L 76.957031 303.480469 L 76.957031 148.839844 L 130.484375 148.839844 Z M 103.421875 125.050781 C 88.253906 125.050781 76.0625 112.855469 76.0625 97.691406 C 76.0625 82.523438 88.253906 70.332031 103.421875 70.332031 C 118.589844 70.332031 130.78125 82.523438 130.78125 97.691406 C 130.484375 112.855469 118.292969 125.050781 103.421875 125.050781 Z M 308.914062 303.480469 L 264.304688 303.480469 L 264.304688 228.539062 C 264.304688 210.398438 261.925781 187.203125 237.246094 187.203125 C 211.96875 187.203125 207.804688 206.828125 207.804688 227.347656 L 207.804688 303.480469 L 163.195312 303.480469 L 163.195312 148.839844 L 204.828125 148.839844 L 204.828125 169.65625 L 206.019531 169.65625 C 212.5625 157.761719 227.726562 148.542969 251.519531 148.542969 C 300.585938 148.542969 309.210938 176.792969 309.210938 218.726562 L 309.210938 303.480469 Z M 308.914062 303.480469"/></g></svg>