<svg xmlns="http://www.w3.org/2000/svg" width="75" viewBox="0 0 75 75" height="75" version="1.0"><defs><clipPath id="a"><path d="M 25 48 L 31 48 L 31 53.582031 L 25 53.582031 Z M 25 48"/></clipPath><clipPath id="b"><path d="M 5 1.082031 L 67.183594 1.082031 L 67.183594 53.582031 L 5 53.582031 Z M 5 1.082031"/></clipPath></defs><path fill="#233DFF" d="M 21.136719 20.078125 L 26.902344 20.078125 L 26.902344 25.90625 L 21.136719 25.90625 Z M 21.136719 20.078125" fill-rule="evenodd"/><path fill="#CAE8FF" d="M 36.675781 15.503906 L 41.308594 15.503906 L 41.308594 20.1875 L 36.675781 20.1875 Z M 36.675781 15.503906" fill-rule="evenodd"/><path fill="#233DFF" d="M 27.722656 26.890625 L 32.355469 26.890625 L 32.355469 31.570312 L 27.722656 31.570312 Z M 27.722656 26.890625" fill-rule="evenodd"/><path fill="#CAE8FF" d="M 21.910156 31.988281 L 24.226562 31.988281 L 24.226562 34.328125 L 21.910156 34.328125 Z M 21.910156 31.988281" fill-rule="evenodd"/><path fill="#CAE8FF" d="M 20.082031 13.816406 L 22.398438 13.816406 L 22.398438 16.15625 L 20.082031 16.15625 Z M 20.082031 13.816406" fill-rule="evenodd"/><path fill="#CAE8FF" d="M 31.402344 20.367188 L 33.71875 20.367188 L 33.71875 22.707031 L 31.402344 22.707031 Z M 31.402344 20.367188" fill-rule="evenodd"/><path fill="#CAE8FF" d="M 43.75 13.527344 L 46.066406 13.527344 L 46.066406 15.867188 L 43.75 15.867188 Z M 43.75 13.527344" fill-rule="evenodd"/><path fill="#CAE8FF" d="M 41.84375 9.160156 L 45.09375 9.160156 L 45.09375 12.449219 L 41.84375 12.449219 Z M 41.84375 9.160156" fill-rule="evenodd"/><path fill="#CAE8FF" d="M 30.089844 4.273438 L 33.34375 4.273438 L 33.34375 7.558594 L 30.089844 7.558594 Z M 30.089844 4.273438" fill-rule="evenodd"/><path fill="#CAE8FF" d="M 37.972656 7.898438 L 40.289062 7.898438 L 40.289062 10.238281 L 37.972656 10.238281 Z M 37.972656 7.898438" fill-rule="evenodd"/><path fill="#CAE8FF" d="M 49.71875 15.0625 L 52.035156 15.0625 L 52.035156 17.402344 L 49.71875 17.402344 Z M 49.71875 15.0625" fill-rule="evenodd"/><path fill="#233DFF" d="M 36.648438 22.425781 L 42.566406 22.425781 L 42.566406 28.410156 L 36.648438 28.410156 Z M 36.648438 22.425781" fill-rule="evenodd"/><path fill="#233DFF" d="M 24.269531 37.738281 L 31.0625 37.738281 L 31.0625 44.605469 L 24.269531 44.605469 Z M 24.269531 37.738281" fill-rule="evenodd"/><path fill="#CAE8FF" d="M 32.789062 33.300781 L 37.417969 33.300781 L 37.417969 37.984375 L 32.789062 37.984375 Z M 32.789062 33.300781" fill-rule="evenodd"/><path fill="#233DFF" d="M 40.082031 39.402344 L 44.714844 39.402344 L 44.714844 44.082031 L 40.082031 44.082031 Z M 40.082031 39.402344" fill-rule="evenodd"/><g clip-path="url(#a)"><path fill="#CAE8FF" d="M 25.773438 48.902344 L 30.402344 48.902344 L 30.402344 53.582031 L 25.773438 53.582031 Z M 25.773438 48.902344" fill-rule="evenodd"/></g><path fill="#CAE8FF" d="M 43.59375 20.398438 L 48.222656 20.398438 L 48.222656 25.078125 L 43.59375 25.078125 Z M 43.59375 20.398438" fill-rule="evenodd"/><path fill="#CAE8FF" d="M 27.632812 33.054688 L 29.945312 33.054688 L 29.945312 35.394531 L 27.632812 35.394531 Z M 27.632812 33.054688" fill-rule="evenodd"/><path fill="#CAE8FF" d="M 35.476562 29.625 L 37.792969 29.625 L 37.792969 31.964844 L 35.476562 31.964844 Z M 35.476562 29.625" fill-rule="evenodd"/><path fill="#CAE8FF" d="M 33.480469 41.207031 L 37.628906 41.207031 L 37.628906 45.394531 L 33.480469 45.394531 Z M 33.480469 41.207031" fill-rule="evenodd"/><path fill="#CAE8FF" d="M 32.148438 49.601562 L 34.894531 49.601562 L 34.894531 52.375 L 32.148438 52.375 Z M 32.148438 49.601562" fill-rule="evenodd"/><path fill="#CAE8FF" d="M 38.957031 31.847656 L 43.097656 31.847656 L 43.097656 36.035156 L 38.957031 36.035156 Z M 38.957031 31.847656" fill-rule="evenodd"/><path fill="#CAE8FF" d="M 44.144531 27.875 L 48.292969 27.875 L 48.292969 32.0625 L 44.144531 32.0625 Z M 44.144531 27.875" fill-rule="evenodd"/><path fill="#233DFF" d="M 26.796875 10.304688 L 33.585938 10.304688 L 33.585938 17.167969 L 26.796875 17.167969 Z M 26.796875 10.304688" fill-rule="evenodd"/><g clip-path="url(#b)"><path fill="#CAE8FF" d="M 5.035156 25.085938 C 6.417969 25.050781 7.554688 24.675781 8.429688 23.949219 C 9.296875 23.230469 9.878906 22.246094 10.171875 20.996094 C 10.460938 19.738281 10.605469 17.582031 10.625 14.542969 C 10.640625 11.507812 10.699219 9.5 10.792969 8.542969 C 10.957031 7.011719 11.25 5.78125 11.695312 4.851562 C 12.136719 3.929688 12.683594 3.183594 13.328125 2.621094 C 13.984375 2.070312 14.8125 1.640625 15.816406 1.355469 C 16.5 1.175781 17.617188 1.082031 19.164062 1.082031 L 20.675781 1.082031 L 20.675781 5.371094 L 19.835938 5.371094 C 17.964844 5.371094 16.726562 5.707031 16.109375 6.398438 C 15.5 7.082031 15.195312 8.597656 15.195312 10.96875 C 15.195312 15.742188 15.09375 18.753906 14.890625 20.011719 C 14.570312 21.960938 14.015625 23.460938 13.230469 24.515625 C 12.449219 25.578125 11.222656 26.511719 9.542969 27.332031 C 11.527344 28.167969 12.964844 29.445312 13.855469 31.171875 C 14.742188 32.886719 15.191406 35.710938 15.191406 39.628906 C 15.191406 43.171875 15.21875 45.285156 15.296875 45.957031 C 15.445312 47.199219 15.800781 48.066406 16.394531 48.558594 C 16.976562 49.042969 18.125 49.296875 19.832031 49.296875 L 20.671875 49.296875 L 20.671875 53.582031 L 19.160156 53.582031 C 17.398438 53.582031 16.121094 53.4375 15.324219 53.144531 C 14.171875 52.726562 13.222656 52.046875 12.464844 51.113281 C 11.707031 50.171875 11.210938 48.988281 10.988281 47.542969 C 10.769531 46.105469 10.640625 43.75 10.621094 40.46875 C 10.597656 37.195312 10.453125 34.929688 10.167969 33.671875 C 9.871094 32.410156 9.289062 31.425781 8.421875 30.695312 C 7.546875 29.960938 6.414062 29.578125 5.03125 29.550781 L 5.03125 25.09375 Z M 67.078125 25.085938 L 67.078125 29.542969 C 65.699219 29.570312 64.5625 29.953125 63.6875 30.691406 C 62.820312 31.417969 62.238281 32.40625 61.945312 33.644531 C 61.660156 34.894531 61.5 37.039062 61.492188 40.074219 C 61.472656 43.125 61.417969 45.121094 61.324219 46.089844 C 61.160156 47.636719 60.863281 48.867188 60.421875 49.789062 C 59.980469 50.710938 59.4375 51.449219 58.789062 52 C 58.132812 52.558594 57.304688 52.980469 56.296875 53.265625 C 55.617188 53.46875 54.5 53.574219 52.953125 53.574219 L 51.4375 53.574219 L 51.4375 49.285156 L 52.277344 49.285156 C 54.148438 49.285156 55.386719 48.941406 56.003906 48.257812 C 56.613281 47.578125 56.917969 46.039062 56.917969 43.652344 C 56.917969 39.101562 57 36.210938 57.164062 34.992188 C 57.453125 32.980469 58.03125 31.355469 58.890625 30.144531 C 59.757812 28.941406 60.984375 28 62.570312 27.320312 C 60.496094 26.324219 59.039062 25 58.191406 23.347656 C 57.339844 21.699219 56.917969 18.921875 56.917969 15.003906 C 56.917969 11.453125 56.878906 9.335938 56.789062 8.636719 C 56.660156 7.414062 56.308594 6.570312 55.714844 6.085938 C 55.132812 5.609375 53.984375 5.367188 52.277344 5.367188 L 51.4375 5.367188 L 51.4375 1.078125 L 52.953125 1.078125 C 54.714844 1.078125 55.996094 1.21875 56.789062 1.515625 C 57.941406 1.914062 58.890625 2.585938 59.648438 3.527344 C 60.40625 4.476562 60.902344 5.667969 61.125 7.105469 C 61.34375 8.554688 61.472656 10.910156 61.492188 14.183594 C 61.503906 17.464844 61.660156 19.722656 61.945312 20.972656 C 62.242188 22.222656 62.824219 23.207031 63.691406 23.9375 C 64.566406 24.667969 65.699219 25.046875 67.082031 25.082031 Z M 67.078125 25.085938"/></g><g fill="#F4F6FC"><g><g><path d="M 3.21875 -5.359375 C 3.71875 -5.359375 4.171875 -5.28125 4.578125 -5.125 C 4.984375 -4.976562 5.300781 -4.753906 5.53125 -4.453125 C 5.769531 -4.148438 5.890625 -3.785156 5.890625 -3.359375 L 4.28125 -3.359375 C 4.28125 -3.578125 4.179688 -3.753906 3.984375 -3.890625 C 3.796875 -4.023438 3.5625 -4.09375 3.28125 -4.09375 C 2.882812 -4.09375 2.582031 -3.984375 2.375 -3.765625 C 2.175781 -3.554688 2.078125 -3.257812 2.078125 -2.875 L 2.078125 -2.390625 C 2.078125 -2.003906 2.175781 -1.703125 2.375 -1.484375 C 2.582031 -1.273438 2.882812 -1.171875 3.28125 -1.171875 C 3.5625 -1.171875 3.796875 -1.234375 3.984375 -1.359375 C 4.179688 -1.492188 4.28125 -1.664062 4.28125 -1.875 L 3.078125 -1.875 L 3.078125 -2.9375 L 5.890625 -2.9375 L 5.890625 0 L 5.015625 0 L 4.859375 -0.515625 C 4.378906 -0.109375 3.75 0.09375 2.96875 0.09375 C 2.09375 0.09375 1.4375 -0.132812 1 -0.59375 C 0.5625 -1.050781 0.34375 -1.734375 0.34375 -2.640625 C 0.34375 -3.523438 0.59375 -4.195312 1.09375 -4.65625 C 1.59375 -5.125 2.300781 -5.359375 3.21875 -5.359375 Z M 3.21875 -5.359375" transform="translate(.67 62.817)"/></g></g></g><g fill="#F4F6FC"><g><g><path d="M 0.640625 0 L 0.640625 -5.265625 L 2.328125 -5.265625 L 2.328125 0 Z M 0.640625 0" transform="translate(7.196 62.817)"/></g></g></g><g fill="#F4F6FC"><g><g><path d="M 4.09375 0 L 3.875 -0.75 L 2.03125 -0.75 L 1.8125 0 L 0.078125 0 L 2 -5.265625 L 3.96875 -5.265625 L 5.890625 0 Z M 2.375 -1.921875 L 3.515625 -1.921875 L 2.96875 -3.796875 L 2.9375 -3.796875 Z M 2.375 -1.921875" transform="translate(10.325 62.817)"/></g></g></g><g fill="#F4F6FC"><g><g><path d="M 3.078125 -5.359375 C 3.859375 -5.359375 4.472656 -5.160156 4.921875 -4.765625 C 5.378906 -4.378906 5.609375 -3.820312 5.609375 -3.09375 L 4 -3.09375 C 4 -3.40625 3.914062 -3.648438 3.75 -3.828125 C 3.59375 -4.003906 3.363281 -4.09375 3.0625 -4.09375 C 2.726562 -4.09375 2.476562 -3.984375 2.3125 -3.765625 C 2.15625 -3.554688 2.078125 -3.257812 2.078125 -2.875 L 2.078125 -2.390625 C 2.078125 -2.015625 2.15625 -1.71875 2.3125 -1.5 C 2.476562 -1.28125 2.726562 -1.171875 3.0625 -1.171875 C 3.382812 -1.171875 3.628906 -1.253906 3.796875 -1.421875 C 3.960938 -1.585938 4.046875 -1.828125 4.046875 -2.140625 L 5.609375 -2.140625 C 5.609375 -1.421875 5.382812 -0.867188 4.9375 -0.484375 C 4.5 -0.0976562 3.878906 0.09375 3.078125 0.09375 C 2.179688 0.09375 1.5 -0.132812 1.03125 -0.59375 C 0.570312 -1.050781 0.34375 -1.734375 0.34375 -2.640625 C 0.34375 -3.535156 0.570312 -4.210938 1.03125 -4.671875 C 1.5 -5.128906 2.179688 -5.359375 3.078125 -5.359375 Z M 3.078125 -5.359375" transform="translate(16.431 62.817)"/></g></g></g><g fill="#F4F6FC"><g><g><path d="M 3.1875 -5.359375 C 4.09375 -5.359375 4.789062 -5.125 5.28125 -4.65625 C 5.78125 -4.195312 6.03125 -3.523438 6.03125 -2.640625 C 6.03125 -1.742188 5.78125 -1.0625 5.28125 -0.59375 C 4.789062 -0.132812 4.09375 0.09375 3.1875 0.09375 C 2.28125 0.09375 1.578125 -0.132812 1.078125 -0.59375 C 0.585938 -1.0625 0.34375 -1.742188 0.34375 -2.640625 C 0.34375 -3.523438 0.585938 -4.195312 1.078125 -4.65625 C 1.578125 -5.125 2.28125 -5.359375 3.1875 -5.359375 Z M 3.1875 -4.09375 C 2.820312 -4.09375 2.546875 -3.984375 2.359375 -3.765625 C 2.171875 -3.546875 2.078125 -3.25 2.078125 -2.875 L 2.078125 -2.390625 C 2.078125 -2.015625 2.171875 -1.71875 2.359375 -1.5 C 2.546875 -1.28125 2.820312 -1.171875 3.1875 -1.171875 C 3.550781 -1.171875 3.828125 -1.28125 4.015625 -1.5 C 4.203125 -1.71875 4.296875 -2.015625 4.296875 -2.390625 L 4.296875 -2.875 C 4.296875 -3.25 4.203125 -3.546875 4.015625 -3.765625 C 3.828125 -3.984375 3.550781 -4.09375 3.1875 -4.09375 Z M 3.1875 -4.09375" transform="translate(22.537 62.817)"/></g></g></g><g fill="#F4F6FC"><g><g><path d="M 5.09375 0 L 5.09375 -1.90625 C 5.09375 -2.132812 5.097656 -2.375 5.109375 -2.625 C 5.128906 -2.875 5.148438 -3.082031 5.171875 -3.25 C 5.191406 -3.414062 5.207031 -3.519531 5.21875 -3.5625 L 5.1875 -3.5625 L 4.21875 0 L 2.890625 0 L 1.90625 -3.5625 L 1.875 -3.5625 C 1.882812 -3.507812 1.898438 -3.398438 1.921875 -3.234375 C 1.941406 -3.078125 1.960938 -2.875 1.984375 -2.625 C 2.003906 -2.375 2.015625 -2.132812 2.015625 -1.90625 L 2.015625 0 L 0.453125 0 L 0.453125 -5.265625 L 2.84375 -5.265625 L 3.640625 -2.234375 L 3.671875 -2.234375 L 4.46875 -5.265625 L 6.765625 -5.265625 L 6.765625 0 Z M 5.09375 0" transform="translate(29.064 62.817)"/></g></g></g><g fill="#F4F6FC"><g><g><path d="M 3.1875 -5.359375 C 4.09375 -5.359375 4.789062 -5.125 5.28125 -4.65625 C 5.78125 -4.195312 6.03125 -3.523438 6.03125 -2.640625 C 6.03125 -1.742188 5.78125 -1.0625 5.28125 -0.59375 C 4.789062 -0.132812 4.09375 0.09375 3.1875 0.09375 C 2.28125 0.09375 1.578125 -0.132812 1.078125 -0.59375 C 0.585938 -1.0625 0.34375 -1.742188 0.34375 -2.640625 C 0.34375 -3.523438 0.585938 -4.195312 1.078125 -4.65625 C 1.578125 -5.125 2.28125 -5.359375 3.1875 -5.359375 Z M 3.1875 -4.09375 C 2.820312 -4.09375 2.546875 -3.984375 2.359375 -3.765625 C 2.171875 -3.546875 2.078125 -3.25 2.078125 -2.875 L 2.078125 -2.390625 C 2.078125 -2.015625 2.171875 -1.71875 2.359375 -1.5 C 2.546875 -1.28125 2.820312 -1.171875 3.1875 -1.171875 C 3.550781 -1.171875 3.828125 -1.28125 4.015625 -1.5 C 4.203125 -1.71875 4.296875 -2.015625 4.296875 -2.390625 L 4.296875 -2.875 C 4.296875 -3.25 4.203125 -3.546875 4.015625 -3.765625 C 3.828125 -3.984375 3.550781 -4.09375 3.1875 -4.09375 Z M 3.1875 -4.09375" transform="translate(36.44 62.817)"/></g></g></g><g fill="#F4F6FC"><g><g><path d="M 5.09375 0 L 5.09375 -1.90625 C 5.09375 -2.132812 5.097656 -2.375 5.109375 -2.625 C 5.128906 -2.875 5.148438 -3.082031 5.171875 -3.25 C 5.191406 -3.414062 5.207031 -3.519531 5.21875 -3.5625 L 5.1875 -3.5625 L 4.21875 0 L 2.890625 0 L 1.90625 -3.5625 L 1.875 -3.5625 C 1.882812 -3.507812 1.898438 -3.398438 1.921875 -3.234375 C 1.941406 -3.078125 1.960938 -2.875 1.984375 -2.625 C 2.003906 -2.375 2.015625 -2.132812 2.015625 -1.90625 L 2.015625 0 L 0.453125 0 L 0.453125 -5.265625 L 2.84375 -5.265625 L 3.640625 -2.234375 L 3.671875 -2.234375 L 4.46875 -5.265625 L 6.765625 -5.265625 L 6.765625 0 Z M 5.09375 0" transform="translate(45.667 62.817)"/></g></g></g><g fill="#F4F6FC"><g><g><path d="M 4.09375 0 L 3.875 -0.75 L 2.03125 -0.75 L 1.8125 0 L 0.078125 0 L 2 -5.265625 L 3.96875 -5.265625 L 5.890625 0 Z M 2.375 -1.921875 L 3.515625 -1.921875 L 2.96875 -3.796875 L 2.9375 -3.796875 Z M 2.375 -1.921875" transform="translate(53.043 62.817)"/></g></g></g><g fill="#F4F6FC"><g><g><path d="M 4.328125 0 L 2.125 -2.5625 L 2.125 0 L 0.5625 0 L 0.5625 -5.265625 L 2.046875 -5.265625 L 4.25 -2.671875 L 4.25 -5.265625 L 5.8125 -5.265625 L 5.8125 0 Z M 4.328125 0" transform="translate(59.15 62.817)"/></g></g></g><g fill="#F4F6FC"><g><g><path d="M 2.78125 -5.359375 C 3.457031 -5.359375 4.007812 -5.222656 4.4375 -4.953125 C 4.875 -4.679688 5.097656 -4.273438 5.109375 -3.734375 L 5.109375 -3.640625 L 3.515625 -3.640625 L 3.515625 -3.671875 C 3.515625 -3.828125 3.457031 -3.957031 3.34375 -4.0625 C 3.238281 -4.164062 3.070312 -4.21875 2.84375 -4.21875 C 2.613281 -4.21875 2.4375 -4.179688 2.3125 -4.109375 C 2.195312 -4.046875 2.140625 -3.960938 2.140625 -3.859375 C 2.140625 -3.722656 2.222656 -3.617188 2.390625 -3.546875 C 2.554688 -3.484375 2.816406 -3.421875 3.171875 -3.359375 C 3.597656 -3.265625 3.945312 -3.171875 4.21875 -3.078125 C 4.488281 -2.984375 4.726562 -2.828125 4.9375 -2.609375 C 5.144531 -2.398438 5.25 -2.113281 5.25 -1.75 C 5.25 -1.125 5.035156 -0.660156 4.609375 -0.359375 C 4.191406 -0.0546875 3.632812 0.09375 2.9375 0.09375 C 2.113281 0.09375 1.472656 -0.0390625 1.015625 -0.3125 C 0.554688 -0.59375 0.328125 -1.082031 0.328125 -1.78125 L 1.921875 -1.78125 C 1.921875 -1.519531 1.988281 -1.34375 2.125 -1.25 C 2.269531 -1.164062 2.488281 -1.125 2.78125 -1.125 C 2.988281 -1.125 3.160156 -1.144531 3.296875 -1.1875 C 3.441406 -1.226562 3.515625 -1.320312 3.515625 -1.46875 C 3.515625 -1.59375 3.4375 -1.6875 3.28125 -1.75 C 3.132812 -1.820312 2.882812 -1.890625 2.53125 -1.953125 C 2.101562 -2.046875 1.75 -2.140625 1.46875 -2.234375 C 1.1875 -2.335938 0.9375 -2.503906 0.71875 -2.734375 C 0.507812 -2.960938 0.40625 -3.273438 0.40625 -3.671875 C 0.40625 -4.253906 0.628906 -4.679688 1.078125 -4.953125 C 1.523438 -5.222656 2.09375 -5.359375 2.78125 -5.359375 Z M 2.78125 -5.359375" transform="translate(65.676 62.817)"/></g></g></g><g fill="#F4F6FC"><g><g><path d="M 0.640625 0 L 0.640625 -5.265625 L 2.328125 -5.265625 L 2.328125 0 Z M 0.640625 0" transform="translate(71.353 62.817)"/></g></g></g><g fill="#F4F6FC"><g><g><path d="M 1.03125 0 L 0.390625 0 L 0.390625 -3.09375 L 2.15625 -3.09375 L 2.15625 -2.546875 L 1.03125 -2.546875 L 1.03125 -1.75 L 2.078125 -1.75 L 2.078125 -1.21875 L 1.03125 -1.21875 Z M 1.03125 0" transform="translate(9.306 71.567)"/></g></g></g><g fill="#F4F6FC"><g><g><path d="M 2.90625 -3.09375 L 2.90625 -1.09375 C 2.90625 -0.863281 2.851562 -0.660156 2.75 -0.484375 C 2.644531 -0.316406 2.492188 -0.1875 2.296875 -0.09375 C 2.109375 0 1.882812 0.046875 1.625 0.046875 C 1.226562 0.046875 0.921875 -0.0507812 0.703125 -0.25 C 0.484375 -0.457031 0.375 -0.738281 0.375 -1.09375 L 0.375 -3.09375 L 1.015625 -3.09375 L 1.015625 -1.203125 C 1.015625 -0.960938 1.0625 -0.785156 1.15625 -0.671875 C 1.257812 -0.554688 1.421875 -0.5 1.640625 -0.5 C 1.859375 -0.5 2.015625 -0.554688 2.109375 -0.671875 C 2.203125 -0.785156 2.25 -0.960938 2.25 -1.203125 L 2.25 -3.09375 Z M 2.90625 -3.09375" transform="translate(11.893 71.567)"/></g></g></g><g fill="#F4F6FC"><g><g><path d="M 0.390625 0 L 0.390625 -3.09375 L 1.046875 -3.09375 L 1.046875 -0.546875 L 2.296875 -0.546875 L 2.296875 0 Z M 0.390625 0" transform="translate(15.374 71.567)"/></g></g></g><g fill="#F4F6FC"><g><g><path d="M 0.390625 0 L 0.390625 -3.09375 L 1.046875 -3.09375 L 1.046875 -0.546875 L 2.296875 -0.546875 L 2.296875 0 Z M 0.390625 0" transform="translate(18.03 71.567)"/></g></g></g><g fill="#F4F6FC"><g><g><path d="M 2.21875 -0.859375 C 2.21875 -0.578125 2.113281 -0.351562 1.90625 -0.1875 C 1.707031 -0.03125 1.429688 0.046875 1.078125 0.046875 C 0.742188 0.046875 0.453125 -0.015625 0.203125 -0.140625 L 0.203125 -0.75 C 0.410156 -0.65625 0.582031 -0.585938 0.71875 -0.546875 C 0.863281 -0.515625 1 -0.5 1.125 -0.5 C 1.269531 -0.5 1.378906 -0.523438 1.453125 -0.578125 C 1.523438 -0.628906 1.5625 -0.710938 1.5625 -0.828125 C 1.5625 -0.890625 1.546875 -0.941406 1.515625 -0.984375 C 1.484375 -1.035156 1.429688 -1.082031 1.359375 -1.125 C 1.296875 -1.164062 1.164062 -1.234375 0.96875 -1.328125 C 0.78125 -1.421875 0.640625 -1.507812 0.546875 -1.59375 C 0.453125 -1.675781 0.375 -1.769531 0.3125 -1.875 C 0.257812 -1.976562 0.234375 -2.101562 0.234375 -2.25 C 0.234375 -2.53125 0.328125 -2.75 0.515625 -2.90625 C 0.703125 -3.0625 0.957031 -3.140625 1.28125 -3.140625 C 1.4375 -3.140625 1.585938 -3.117188 1.734375 -3.078125 C 1.878906 -3.035156 2.035156 -2.984375 2.203125 -2.921875 L 1.984375 -2.40625 C 1.816406 -2.476562 1.679688 -2.523438 1.578125 -2.546875 C 1.472656 -2.578125 1.367188 -2.59375 1.265625 -2.59375 C 1.140625 -2.59375 1.039062 -2.5625 0.96875 -2.5 C 0.90625 -2.445312 0.875 -2.375 0.875 -2.28125 C 0.875 -2.21875 0.882812 -2.164062 0.90625 -2.125 C 0.9375 -2.082031 0.976562 -2.039062 1.03125 -2 C 1.09375 -1.957031 1.234375 -1.882812 1.453125 -1.78125 C 1.742188 -1.644531 1.941406 -1.503906 2.046875 -1.359375 C 2.160156 -1.222656 2.21875 -1.054688 2.21875 -0.859375 Z M 2.21875 -0.859375" transform="translate(22.025 71.567)"/></g></g></g><g fill="#F4F6FC"><g><g><path d="M 1.578125 0 L 0.921875 0 L 0.921875 -2.546875 L 0.09375 -2.546875 L 0.09375 -3.09375 L 2.421875 -3.09375 L 2.421875 -2.546875 L 1.578125 -2.546875 Z M 1.578125 0" transform="translate(24.62 71.567)"/></g></g></g><g fill="#F4F6FC"><g><g><path d="M 2.28125 0 L 2.0625 -0.734375 L 0.9375 -0.734375 L 0.703125 0 L 0 0 L 1.09375 -3.109375 L 1.890625 -3.109375 L 2.984375 0 Z M 1.90625 -1.28125 C 1.695312 -1.945312 1.578125 -2.320312 1.546875 -2.40625 C 1.523438 -2.5 1.507812 -2.570312 1.5 -2.625 C 1.445312 -2.445312 1.3125 -2 1.09375 -1.28125 Z M 1.90625 -1.28125" transform="translate(27.337 71.567)"/></g></g></g><g fill="#F4F6FC"><g><g><path d="M 1.703125 -2.59375 C 1.453125 -2.59375 1.257812 -2.5 1.125 -2.3125 C 0.988281 -2.125 0.921875 -1.863281 0.921875 -1.53125 C 0.921875 -0.84375 1.179688 -0.5 1.703125 -0.5 C 1.921875 -0.5 2.179688 -0.554688 2.484375 -0.671875 L 2.484375 -0.109375 C 2.234375 -0.00390625 1.953125 0.046875 1.640625 0.046875 C 1.191406 0.046875 0.847656 -0.0859375 0.609375 -0.359375 C 0.367188 -0.640625 0.25 -1.035156 0.25 -1.546875 C 0.25 -1.859375 0.304688 -2.132812 0.421875 -2.375 C 0.546875 -2.625 0.71875 -2.8125 0.9375 -2.9375 C 1.15625 -3.070312 1.410156 -3.140625 1.703125 -3.140625 C 2.003906 -3.140625 2.304688 -3.066406 2.609375 -2.921875 L 2.390625 -2.390625 C 2.273438 -2.441406 2.160156 -2.488281 2.046875 -2.53125 C 1.929688 -2.570312 1.816406 -2.59375 1.703125 -2.59375 Z M 1.703125 -2.59375" transform="translate(30.534 71.567)"/></g></g></g><g fill="#F4F6FC"><g><g><path d="M 2.875 0 L 2.125 0 L 1.328125 -1.296875 L 1.046875 -1.109375 L 1.046875 0 L 0.390625 0 L 0.390625 -3.09375 L 1.046875 -3.09375 L 1.046875 -1.671875 L 1.296875 -2.046875 L 2.140625 -3.09375 L 2.859375 -3.09375 L 1.78125 -1.71875 Z M 2.875 0" transform="translate(33.502 71.567)"/></g></g></g><g fill="#F4F6FC"><g><g><path d="M 2.953125 -1.578125 C 2.953125 -1.066406 2.804688 -0.675781 2.515625 -0.40625 C 2.222656 -0.132812 1.804688 0 1.265625 0 L 0.390625 0 L 0.390625 -3.09375 L 1.359375 -3.09375 C 1.859375 -3.09375 2.25 -2.957031 2.53125 -2.6875 C 2.8125 -2.425781 2.953125 -2.054688 2.953125 -1.578125 Z M 2.265625 -1.5625 C 2.265625 -2.21875 1.972656 -2.546875 1.390625 -2.546875 L 1.046875 -2.546875 L 1.046875 -0.546875 L 1.328125 -0.546875 C 1.953125 -0.546875 2.265625 -0.882812 2.265625 -1.5625 Z M 2.265625 -1.5625" transform="translate(37.925 71.567)"/></g></g></g><g fill="#F4F6FC"><g><g><path d="M 2.171875 0 L 0.390625 0 L 0.390625 -3.09375 L 2.171875 -3.09375 L 2.171875 -2.546875 L 1.046875 -2.546875 L 1.046875 -1.875 L 2.09375 -1.875 L 2.09375 -1.34375 L 1.046875 -1.34375 L 1.046875 -0.546875 L 2.171875 -0.546875 Z M 2.171875 0" transform="translate(41.338 71.567)"/></g></g></g><g fill="#F4F6FC"><g><g><path d="M 2.15625 -3.09375 L 2.8125 -3.09375 L 1.765625 0 L 1.046875 0 L 0 -3.09375 L 0.65625 -3.09375 L 1.25 -1.25 C 1.28125 -1.144531 1.3125 -1.019531 1.34375 -0.875 C 1.375 -0.726562 1.394531 -0.628906 1.40625 -0.578125 C 1.425781 -0.703125 1.476562 -0.925781 1.5625 -1.25 Z M 2.15625 -3.09375" transform="translate(43.974 71.567)"/></g></g></g><g fill="#F4F6FC"><g><g><path d="M 2.171875 0 L 0.390625 0 L 0.390625 -3.09375 L 2.171875 -3.09375 L 2.171875 -2.546875 L 1.046875 -2.546875 L 1.046875 -1.875 L 2.09375 -1.875 L 2.09375 -1.34375 L 1.046875 -1.34375 L 1.046875 -0.546875 L 2.171875 -0.546875 Z M 2.171875 0" transform="translate(46.997 71.567)"/></g></g></g><g fill="#F4F6FC"><g><g><path d="M 0.390625 0 L 0.390625 -3.09375 L 1.046875 -3.09375 L 1.046875 -0.546875 L 2.296875 -0.546875 L 2.296875 0 Z M 0.390625 0" transform="translate(49.632 71.567)"/></g></g></g><g fill="#F4F6FC"><g><g><path d="M 3.1875 -1.546875 C 3.1875 -1.035156 3.0625 -0.640625 2.8125 -0.359375 C 2.5625 -0.0859375 2.195312 0.046875 1.71875 0.046875 C 1.25 0.046875 0.882812 -0.0859375 0.625 -0.359375 C 0.375 -0.640625 0.25 -1.035156 0.25 -1.546875 C 0.25 -2.066406 0.375 -2.460938 0.625 -2.734375 C 0.882812 -3.003906 1.253906 -3.140625 1.734375 -3.140625 C 2.203125 -3.140625 2.5625 -3 2.8125 -2.71875 C 3.0625 -2.445312 3.1875 -2.054688 3.1875 -1.546875 Z M 0.9375 -1.546875 C 0.9375 -1.203125 1 -0.941406 1.125 -0.765625 C 1.257812 -0.585938 1.457031 -0.5 1.71875 -0.5 C 2.238281 -0.5 2.5 -0.847656 2.5 -1.546875 C 2.5 -2.242188 2.242188 -2.59375 1.734375 -2.59375 C 1.460938 -2.59375 1.257812 -2.503906 1.125 -2.328125 C 1 -2.148438 0.9375 -1.890625 0.9375 -1.546875 Z M 0.9375 -1.546875" transform="translate(52.289 71.567)"/></g></g></g><g fill="#F4F6FC"><g><g><path d="M 1.046875 -1.640625 L 1.265625 -1.640625 C 1.460938 -1.640625 1.609375 -1.675781 1.703125 -1.75 C 1.804688 -1.832031 1.859375 -1.953125 1.859375 -2.109375 C 1.859375 -2.253906 1.816406 -2.363281 1.734375 -2.4375 C 1.648438 -2.507812 1.519531 -2.546875 1.34375 -2.546875 L 1.046875 -2.546875 Z M 2.515625 -2.125 C 2.515625 -1.789062 2.410156 -1.535156 2.203125 -1.359375 C 2.003906 -1.179688 1.710938 -1.09375 1.328125 -1.09375 L 1.046875 -1.09375 L 1.046875 0 L 0.390625 0 L 0.390625 -3.09375 L 1.375 -3.09375 C 1.75 -3.09375 2.03125 -3.007812 2.21875 -2.84375 C 2.414062 -2.6875 2.515625 -2.445312 2.515625 -2.125 Z M 2.515625 -2.125" transform="translate(55.943 71.567)"/></g></g></g><g fill="#F4F6FC"><g><g><path d="M 2.171875 0 L 0.390625 0 L 0.390625 -3.09375 L 2.171875 -3.09375 L 2.171875 -2.546875 L 1.046875 -2.546875 L 1.046875 -1.875 L 2.09375 -1.875 L 2.09375 -1.34375 L 1.046875 -1.34375 L 1.046875 -0.546875 L 2.171875 -0.546875 Z M 2.171875 0" transform="translate(58.871 71.567)"/></g></g></g><g fill="#F4F6FC"><g><g><path d="M 1.046875 -1.71875 L 1.25 -1.71875 C 1.457031 -1.71875 1.609375 -1.75 1.703125 -1.8125 C 1.804688 -1.882812 1.859375 -1.992188 1.859375 -2.140625 C 1.859375 -2.285156 1.804688 -2.390625 1.703125 -2.453125 C 1.609375 -2.515625 1.457031 -2.546875 1.25 -2.546875 L 1.046875 -2.546875 Z M 1.046875 -1.1875 L 1.046875 0 L 0.390625 0 L 0.390625 -3.09375 L 1.296875 -3.09375 C 1.710938 -3.09375 2.019531 -3.015625 2.21875 -2.859375 C 2.414062 -2.703125 2.515625 -2.472656 2.515625 -2.171875 C 2.515625 -1.984375 2.460938 -1.816406 2.359375 -1.671875 C 2.265625 -1.535156 2.128906 -1.425781 1.953125 -1.34375 C 2.410156 -0.644531 2.710938 -0.195312 2.859375 0 L 2.125 0 L 1.390625 -1.1875 Z M 1.046875 -1.1875" transform="translate(61.506 71.567)"/></g></g></g></svg>